HIERARCHY
ROOT Hips
{
	OFFSET 0.000000 0.000000 0.000000
	CHANNELS 6 Xposition Yposition Zposition Xrotation Yrotation Zrotation
	JOINT LeftUpLeg_virtual
	{
		OFFSET 0.000000 0.000000 0.000000
		CHANNELS 3 Xrotation Yrotation Zrotation
		JOINT LeftUpLeg
		{
			OFFSET 15.427100 -6.655098 0.678600
			CHANNELS 3 Xrotation Yrotation Zrotation
			JOINT LeftLeg
			{
				OFFSET 4.081073 -39.591068 13.024000
				CHANNELS 3 Xrotation Yrotation Zrotation
				JOINT LeftFoot
				{
					OFFSET -4.081074 -37.707932 -15.979700
					CHANNELS 3 Xrotation Yrotation Zrotation
					JOINT LeftToeBase
					{
						OFFSET 5.346399 -15.068900 20.645000
						CHANNELS 3 Xrotation Yrotation Zrotation
						JOINT LeftToe_End
						{
							OFFSET 2.754700 0.931300 11.300900
							CHANNELS 3 Xrotation Yrotation Zrotation
							End Site
							{
								OFFSET 0 0 0
							}
						}
					}
				}
			}
		}
	}
	JOINT RightUpLeg_virtual
	{
		OFFSET 0.000000 0.000000 0.000000
		CHANNELS 3 Xrotation Yrotation Zrotation
		JOINT RightUpLeg
		{
			OFFSET -15.569500 -6.655098 0.678600
			CHANNELS 3 Xrotation Yrotation Zrotation
			JOINT RightLeg
			{
				OFFSET -4.081825 -39.591045 13.023800
				CHANNELS 3 Xrotation Yrotation Zrotation
				JOINT RightFoot
				{
					OFFSET 4.081824 -37.707954 -15.979600
					CHANNELS 3 Xrotation Yrotation Zrotation
					JOINT RightToeBase
					{
						OFFSET -5.346400 -15.068900 20.645000
						CHANNELS 3 Xrotation Yrotation Zrotation
						JOINT RightToe_End
						{
							OFFSET -2.754700 0.931300 11.300900
							CHANNELS 3 Xrotation Yrotation Zrotation
							End Site
							{
								OFFSET 0 0 0
							}
						}
					}
				}
			}
		}
	}
	JOINT Spine_virtual
	{
		OFFSET 0.000000 0.000000 0.000000
		CHANNELS 3 Xrotation Yrotation Zrotation
		JOINT Spine
		{
			OFFSET -0.279200 12.230698 -2.892100
			CHANNELS 3 Xrotation Yrotation Zrotation
			JOINT Spine1
			{
				OFFSET -0.232667 10.192268 -1.242267
				CHANNELS 3 Xrotation Yrotation Zrotation
				JOINT Spine1_split
				{
					OFFSET -0.232667 10.192268 -1.242267
					CHANNELS 3 Xrotation Yrotation Zrotation
					JOINT Spine2
					{
						OFFSET -0.232667 10.192268 -1.242267
						CHANNELS 3 Xrotation Yrotation Zrotation
						JOINT Neck_virtual
						{
							OFFSET 0.000000 0.000000 0.000000
							CHANNELS 3 Xrotation Yrotation Zrotation
							JOINT Neck
							{
								OFFSET -0.418800 17.814194 8.416900
								CHANNELS 3 Xrotation Yrotation Zrotation
								JOINT Head
								{
									OFFSET 0.000000 7.031097 3.806800
									CHANNELS 3 Xrotation Yrotation Zrotation
									JOINT HeadTop_End
									{
										OFFSET 0.000000 24.646606 12.978600
										CHANNELS 3 Xrotation Yrotation Zrotation
										End Site
										{
											OFFSET 0 0 0
										}
									}
								}
							}
						}
						JOINT LeftShoulder_virtual
						{
							OFFSET 0.000000 0.000000 0.000000
							CHANNELS 3 Xrotation Yrotation Zrotation
							JOINT LeftShoulder
							{
								OFFSET 8.476499 7.247704 -3.868750
								CHANNELS 3 Xrotation Yrotation Zrotation
								JOINT LeftShoulder_split
								{
									OFFSET 8.476499 7.247704 -3.868750
									CHANNELS 3 Xrotation Yrotation Zrotation
									JOINT LeftArm
									{
										OFFSET 9.308998 -2.777710 0.208600
										CHANNELS 3 Xrotation Yrotation Zrotation
										JOINT LeftForeArm
										{
											OFFSET 29.972298 0.000000 0.000000
											CHANNELS 3 Xrotation Yrotation Zrotation
											JOINT LeftHand
											{
												OFFSET 26.026505 0.000000 0.000000
												CHANNELS 3 Xrotation Yrotation Zrotation
												End Site
												{
													OFFSET 0 0 0
												}
											}
										}
									}
								}
							}
						}
						JOINT RightShoulder_virtual
						{
							OFFSET 0.000000 0.000000 0.000000
							CHANNELS 3 Xrotation Yrotation Zrotation
							JOINT RightShoulder
							{
								OFFSET -7.570500 7.247704 -3.868750
								CHANNELS 3 Xrotation Yrotation Zrotation
								JOINT RightShoulder_split
								{
									OFFSET -7.570500 7.247704 -3.868750
									CHANNELS 3 Xrotation Yrotation Zrotation
									JOINT RightArm
									{
										OFFSET -9.308998 -2.777710 0.208500
										CHANNELS 3 Xrotation Yrotation Zrotation
										JOINT RightForeArm
										{
											OFFSET -29.972300 0.000000 0.000000
											CHANNELS 3 Xrotation Yrotation Zrotation
											JOINT RightHand
											{
												OFFSET -26.026505 0.000000 0.000000
												CHANNELS 3 Xrotation Yrotation Zrotation
												End Site
												{
													OFFSET 0 0 0
												}
											}
										}
									}
								}
							}
						}
					}
				}
			}
		}
	}
}
MOTION
Frames: 11
Frame Time: 0.03333333
-26.643549 77.330978 -12.249699 0.000000 0.000000 0.000000 34.936773 8.535200 -3.001242 -54.926739 -19.781030 26.919439 30.981755 9.321300 -2.901293 8.371408 6.209398 -32.932925 -1.009462 0.557357 -0.116753 0.000000 0.000000 0.000000 35.218600 7.811541 -3.033314 -59.051753 -1.051100 -24.512678 41.274485 -2.288742 0.511933 -14.620923 -4.232916 20.446989 3.519619 0.870339 0.256417 0.000000 0.000000 0.000000 35.895482 4.932561 -3.211547 9.464297 0.616741 -0.064653 11.449183 1.841137 1.348769 0.872683 0.211322 0.236830 0.000000 0.000000 0.000000 10.402512 2.006984 1.168713 -0.503233 -1.810786 -2.643956 -30.498635 -11.136420 3.420449 0.000000 0.000000 0.000000 10.741458 1.888026 0.788735 0.738210 -20.962025 -10.270514 1.262919 0.448877 -2.789578 14.765074 -10.892515 -49.207859 -3.332151 -72.367213 -3.274483 0.000000 0.000000 0.000000 10.584047 2.245553 1.591147 2.847118 26.326368 7.581057 -0.331285 2.880518 -0.281141 -4.981183 41.101599 18.622180 -0.760217 20.218871 1.465551 0.000000 0.000000 0.000000 
-25.510775 76.175476 -12.389423 0.000000 0.000000 0.000000 37.711571 8.726710 -2.882489 -60.953161 -19.082408 25.536998 33.822257 8.410207 -3.097632 7.393518 4.931346 -33.195539 -1.160900 0.433291 0.158885 0.000000 0.000000 0.000000 38.161964 7.538365 -2.665499 -62.808801 0.206612 -25.578300 42.273444 -1.804905 0.118346 -14.889567 -4.334437 21.546795 3.123571 0.964547 0.108881 0.000000 0.000000 0.000000 38.957200 4.820066 -2.815966 9.713762 0.979116 0.044433 11.674569 1.986707 1.377577 0.906281 0.179798 0.281324 0.000000 0.000000 0.000000 10.628270 2.201214 1.135931 -0.631961 -1.973403 -2.855387 -32.350248 -12.012441 2.620206 0.000000 0.000000 0.000000 11.042092 2.057132 0.795049 0.739738 -21.607633 -9.881294 1.309064 0.309600 -2.978911 14.656580 -10.753496 -48.897229 -4.154886 -74.549739 -4.147934 0.000000 0.000000 0.000000 10.771073 2.435191 1.638203 2.832431 26.684149 7.694553 -0.098335 2.812090 -0.356058 -7.457370 41.069115 15.572894 -1.036272 20.627957 1.573860 0.000000 0.000000 0.000000 
-24.298550 74.980705 -12.355583 0.000000 0.000000 0.000000 40.354130 9.277647 -2.687437 -67.052131 -18.019318 24.121361 36.985737 7.417034 -3.468316 6.141812 3.587084 -32.867536 -1.320469 0.301552 0.239336 0.000000 0.000000 0.000000 40.922542 7.641047 -2.240358 -66.343219 1.766688 -27.042742 43.630613 -1.385406 -0.139391 -15.114990 -4.446848 22.785446 2.684146 1.045774 0.057014 0.000000 0.000000 0.000000 41.907572 4.902209 -2.267444 9.968952 1.355922 0.163249 11.811649 2.143071 1.361705 0.998022 0.141006 0.290086 0.000000 0.000000 0.000000 10.781034 2.404436 1.067096 -0.736621 -2.177664 -3.022096 -34.027770 -12.943606 1.744260 0.000000 0.000000 0.000000 11.256702 2.244416 0.787024 0.771407 -22.245200 -9.413944 1.491420 0.040464 -3.204351 15.265311 -11.600134 -48.718797 -4.883553 -76.441647 -4.944686 0.000000 0.000000 0.000000 10.889196 2.622247 1.647132 2.818189 26.783888 7.921169 0.132447 2.715817 -0.352966 -10.896493 40.822951 13.207222 -1.276555 21.140093 1.550356 0.000000 0.000000 0.000000 
-23.050936 73.598862 -12.101830 0.000000 0.000000 0.000000 42.809478 10.178066 -2.368780 -72.977443 -16.684930 22.756092 40.365404 6.349643 -3.999606 4.791648 2.355232 -32.056035 -1.582928 0.177068 0.161422 0.000000 0.000000 0.000000 43.413939 8.193265 -1.733979 -69.615351 3.786483 -29.010907 45.587261 -1.088749 -0.263892 -15.521197 -4.659240 24.011646 2.500008 1.121334 0.087829 0.000000 0.000000 0.000000 44.603820 5.265109 -1.550118 10.260541 1.729477 0.234280 11.923493 2.333502 1.325196 1.020009 0.120422 0.293190 0.000000 0.000000 0.000000 10.929457 2.630409 0.992307 -0.901423 -2.416428 -3.186273 -35.605626 -13.875962 0.782410 0.000000 0.000000 0.000000 11.449629 2.464437 0.786198 0.833010 -22.770186 -8.901537 1.730684 -0.204951 -3.385180 16.139220 -13.179931 -48.639799 -5.487151 -77.831836 -5.601975 0.000000 0.000000 0.000000 11.001078 2.816909 1.627779 2.843984 26.718385 8.143531 0.387390 2.571670 -0.276815 -14.525719 40.419868 11.055566 -1.449123 21.995429 1.427914 0.000000 0.000000 0.000000 
-21.890944 71.927361 -11.723095 0.000000 0.000000 0.000000 44.988018 11.370121 -1.898886 -78.463526 -15.265058 21.439839 43.861931 5.193737 -4.593934 3.300862 1.422564 -30.942143 -1.846197 0.050782 0.019551 0.000000 0.000000 0.000000 45.614459 9.270087 -1.178611 -72.518366 6.343294 -31.427456 48.326505 -0.940970 -0.280263 -16.322108 -5.047485 25.147320 2.554469 1.195641 0.179032 0.000000 0.000000 0.000000 46.945482 5.910170 -0.710967 10.624746 2.092150 0.203538 12.083325 2.584106 1.295775 0.949457 0.097213 0.349339 0.000000 0.000000 0.000000 11.148567 2.900963 0.936793 -1.266910 -2.696379 -3.390907 -37.194065 -14.748801 -0.261695 0.000000 0.000000 0.000000 11.692387 2.729381 0.812988 0.933402 -23.092096 -8.359200 1.906095 -0.364633 -3.457883 16.806715 -15.108146 -48.625104 -6.117788 -78.628263 -6.235132 0.000000 0.000000 0.000000 11.187850 3.039828 1.606014 2.933013 26.623092 8.247331 0.634689 2.433141 -0.103670 -17.572617 40.021859 8.551316 -1.505380 23.087351 1.269852 0.000000 0.000000 0.000000 
-20.857697 69.918961 -11.228294 0.000000 0.000000 0.000000 46.858458 12.660531 -1.293892 -83.325542 -13.917409 20.168857 47.373745 3.959670 -5.151197 1.630848 0.925511 -29.738152 -2.025552 -0.068332 -0.092198 0.000000 0.000000 0.000000 47.512643 10.682547 -0.602209 -74.930604 9.411996 -34.118625 51.779896 -0.911522 -0.260613 -17.562105 -5.627464 26.199110 2.687992 1.267233 0.302976 0.000000 0.000000 0.000000 48.909905 6.833558 0.150142 11.051209 2.468676 0.063783 12.353181 2.917622 1.296878 0.899508 0.106621 0.362176 0.000000 0.000000 0.000000 11.498906 3.231304 0.928894 -1.927673 -2.995184 -3.645137 -38.896029 -15.573050 -1.367720 0.000000 0.000000 0.000000 12.040309 3.050300 0.877586 1.063976 -23.142004 -7.794880 1.883385 -0.426273 -3.438161 16.862296 -17.061287 -48.712971 -6.929339 -78.878276 -6.955099 0.000000 0.000000 0.000000 11.504980 3.319785 1.602302 3.073076 26.661317 8.193060 0.730149 2.266823 0.132694 -19.667899 39.625711 5.392129 -1.432452 23.962655 1.129479 0.000000 0.000000 0.000000 
-19.993504 67.619301 -10.637226 0.000000 0.000000 0.000000 48.415974 13.923267 -0.636636 -87.536210 -12.794496 18.945789 50.800082 2.669478 -5.564366 -0.240619 0.915925 -28.823275 -2.141713 -0.166171 -0.070673 0.000000 0.000000 0.000000 49.141770 12.177486 -0.018609 -76.718488 12.892709 -36.889046 55.614887 -0.972893 -0.272641 -19.222102 -6.388599 27.145856 2.920753 1.334423 0.429468 0.000000 0.000000 0.000000 50.498037 7.916987 0.963550 11.497035 2.875953 -0.141634 12.762780 3.315616 1.346857 0.795992 0.064935 0.429192 0.000000 0.000000 0.000000 12.015621 3.613573 0.984622 -2.879377 -3.316686 -3.916354 -40.812754 -16.336018 -2.482803 0.000000 0.000000 0.000000 12.518121 3.432527 0.977906 1.210909 -22.892243 -7.231503 1.809295 -0.472567 -3.338745 16.257705 -18.903805 -48.906040 -7.821075 -78.705424 -7.705804 0.000000 0.000000 0.000000 11.969136 3.664956 1.644924 3.244384 26.919162 7.935785 0.707072 2.197821 0.285511 -21.050097 39.187206 1.685351 -1.297146 24.207171 1.057143 0.000000 0.000000 0.000000 
-19.324223 65.183632 -10.025295 0.000000 0.000000 0.000000 49.665912 15.023411 0.001924 -91.100790 -11.960746 17.779961 54.106508 1.374566 -5.780683 -2.204316 1.327243 -28.389210 -2.360095 -0.243386 0.132210 0.000000 0.000000 0.000000 50.537126 13.545612 0.509868 -77.845121 16.546191 -39.594077 59.537407 -1.115074 -0.320768 -21.137834 -7.265928 28.050569 3.207413 1.389986 0.544649 0.000000 0.000000 0.000000 51.841460 9.080788 1.615979 11.917358 3.321243 -0.358023 13.311251 3.753854 1.445743 0.733857 -0.035511 0.491171 0.000000 0.000000 0.000000 12.683240 4.031922 1.105431 -4.099136 -3.649802 -4.169376 -43.018160 -17.029270 -3.569778 0.000000 0.000000 0.000000 13.115614 3.850571 1.109232 1.366720 -22.419041 -6.673757 1.706093 -0.597175 -3.216196 15.181945 -20.535276 -49.266462 -8.852046 -78.426718 -8.575374 0.000000 0.000000 0.000000 12.567210 4.067302 1.746021 3.425205 27.389783 7.511014 0.498858 2.235400 0.349626 -22.334804 38.631605 -2.074810 -1.143303 23.875423 1.067244 0.000000 0.000000 0.000000 
-18.822832 62.792660 -9.364876 0.000000 0.000000 0.000000 50.710135 15.977469 0.451425 -94.150176 -11.416947 16.771036 57.266300 0.180300 -5.808611 -4.022913 2.070468 -28.521395 -2.719477 -0.303344 0.490660 0.000000 0.000000 0.000000 51.779808 14.595341 0.925099 -78.358594 20.176263 -42.112733 63.181340 -1.291394 -0.391805 -22.963297 -8.155277 29.145998 3.270886 1.417558 0.608634 0.000000 0.000000 0.000000 53.043331 10.213190 2.050577 12.249788 3.790117 -0.523799 13.954988 4.187081 1.592522 0.743182 -0.228081 0.486493 0.000000 0.000000 0.000000 13.449898 4.447151 1.285431 -5.462313 -3.960395 -4.356483 -45.537165 -17.623374 -4.587836 0.000000 0.000000 0.000000 13.784294 4.272912 1.261604 1.510284 -21.834479 -6.141854 1.816378 -0.875016 -3.058108 13.782088 -21.933597 -49.836397 -9.809205 -78.323876 -9.427704 0.000000 0.000000 0.000000 13.243966 4.482676 1.900146 3.595730 27.937024 6.950449 0.242975 2.406562 0.293174 -24.201037 37.821599 -5.189094 -1.064744 23.628298 1.163316 0.000000 0.000000 0.000000 
-18.475269 60.635841 -8.668697 0.000000 0.000000 0.000000 51.617235 16.744856 0.635984 -96.756241 -11.175392 16.007151 60.185318 -0.841941 -5.684822 -5.499015 3.009651 -29.119098 -3.201823 -0.359705 0.935927 0.000000 0.000000 0.000000 52.932224 15.312929 1.136422 -78.356026 23.533478 -44.294620 66.279609 -1.505506 -0.449390 -24.493214 -8.998225 30.487922 2.994835 1.419109 0.597315 0.000000 0.000000 0.000000 54.245622 11.208125 2.214462 12.468480 4.249866 -0.592144 14.645488 4.565442 1.768082 0.728162 -0.508447 0.574399 0.000000 0.000000 0.000000 14.269022 4.815576 1.496585 -6.826313 -4.223378 -4.440685 -48.299608 -18.035336 -5.478928 0.000000 0.000000 0.000000 14.475379 4.654663 1.430635 1.629207 -21.309739 -5.658912 1.991229 -1.244311 -2.872043 12.338625 -22.952246 -50.607177 -10.799269 -78.650503 -10.400744 0.000000 0.000000 0.000000 13.940605 4.858848 2.093402 3.739755 28.371100 6.285525 0.041544 2.666997 0.198762 -27.030668 36.794553 -7.079316 -1.105423 24.439525 1.314375 0.000000 0.000000 0.000000 
-18.267487 58.817444 -7.977871 0.000000 0.000000 0.000000 52.497411 17.297066 0.512636 -98.955521 -11.235870 15.497317 62.814593 -1.605673 -5.445651 -6.639228 4.102843 -29.869230 -3.644533 -0.425339 1.335563 0.000000 0.000000 0.000000 54.065903 15.754750 1.069295 -77.951371 26.354223 -46.042568 68.656276 -1.831898 -0.411752 -25.785388 -9.825987 31.854022 2.546394 1.403578 0.515038 0.000000 0.000000 0.000000 55.460777 11.978123 2.105670 12.574004 4.655473 -0.553588 15.331077 4.857449 1.944424 0.715645 -0.787576 0.611531 0.000000 0.000000 0.000000 15.074195 5.102763 1.704791 -8.053937 -4.404433 -4.400240 -51.111993 -18.246029 -6.191090 0.000000 0.000000 0.000000 15.139567 4.950765 1.596345 1.721437 -20.991301 -5.275093 2.218131 -1.616447 -2.661796 10.941862 -23.365017 -51.586185 -12.010104 -79.549478 -11.680127 0.000000 0.000000 0.000000 14.621306 5.148250 2.287307 3.832677 28.517175 5.590474 -0.123991 2.818694 0.168275 -30.600156 35.587451 -7.518233 -1.255487 27.048133 1.475294 0.000000 0.000000 0.000000 
